<svg xmlns="http://www.w3.org/2000/svg" xmlns:xlink="http://www.w3.org/1999/xlink" width="979.111" height="235.91" viewBox="0 0 979.111 235.91"><defs><style>.a{opacity:0.34;fill:url(#a);}.b{opacity:0.42;fill:url(#b);}</style><radialGradient id="a" cx="0.627" cy="0.126" r="0.645" gradientTransform="matrix(1, -0.028, 0.041, 1.438, -0.005, -0.037)" gradientUnits="objectBoundingBox"><stop offset="0" stop-color="#fff"/><stop offset="1" stop-color="#212121" stop-opacity="0"/></radialGradient><radialGradient id="b" cx="0.627" cy="0.874" r="0.645" gradientTransform="matrix(1, 0.028, 0.041, -1.438, -0.035, 2.114)" xlink:href="#a"/></defs><g transform="translate(51 27.611)"><path class="a" d="M255.056,131.088a41.807,41.807,0,0,1-12.109,1.781H41.8a41.8,41.8,0,0,1,0-83.6h3.089c7.351-10.585,22.23-18.18,39.816-19.446C95.172,12.081,115.924,0,139.816,0c20.505,0,38.7,8.9,50.057,22.632a71.093,71.093,0,0,1,12.512-1.1c24.622,0,45.083,12.358,49.2,28.622A41.788,41.788,0,0,1,275.144,64.4c27.141.36,48.983,15.737,48.983,34.653,0,19.142-22.367,34.66-49.956,34.66A69.341,69.341,0,0,1,255.056,131.088Z" transform="translate(0 23.389)"/><path class="b" d="M124.982,151.987a100.152,100.152,0,0,1-15.277,1.159c-34.936,0-63.8-17.733-68.292-40.722A56.687,56.687,0,0,1,56.678,1.148H336.053a56.7,56.7,0,0,1,16.083,2.314,97.285,97.285,0,0,1,26-3.462c38.052,0,68.9,21.039,68.9,46.993,0,25.6-30,46.412-67.33,46.982a56.633,56.633,0,0,1-32.762,19.484c-5.777,21.97-33.941,38.641-67.815,38.641a99.693,99.693,0,0,1-17.257-1.486c-15.669,18.623-40.758,30.686-69.039,30.686C165.26,181.3,140.715,169.825,124.982,151.987Z" transform="translate(901.111 181.299) rotate(180)"/></g></svg>